Coordinates
version=1
nRows=11
nColumns=36
inDegrees=yes

Units are S.I. units (second, meters, Newtons, ...)
If the header above contains a line with 'inDegrees', this indicates whether rotational values are in degrees (yes) or radians (no).

endheader
time	pelvis_tilt	pelvis_list	pelvis_rotation	pelvis_tx	pelvis_ty	pelvis_tz	hip_flexion_r	hip_adduction_r	hip_rotation_r	knee_angle_r	knee_angle_r_beta	ankle_angle_r	subtalar_angle_r	mtp_angle_r	hip_flexion_l	hip_adduction_l	hip_rotation_l	knee_angle_l	knee_angle_l_beta	ankle_angle_l	subtalar_angle_l	mtp_angle_l	lumbar_extension	lumbar_bending	lumbar_rotation	arm_flex_r	arm_add_r	arm_rot_r	elbow_flex_r	pro_sup_r	arm_flex_l	arm_add_l	arm_rot_l	elbow_flex_l	pro_sup_l
      0.00000000	     -4.62340258	     -0.79299094	     -1.22864764	     -0.92652273	      1.26862593	     -0.02268876	     10.96805965	      0.33449791	     -0.71862780	     12.92267041	      0.22554315	      3.54993934	    -19.42642131	     -5.42879663	      9.81807596	     -3.25170260	      1.16540648	     13.71839883	      0.23943123	     12.27155697	     -5.03486492	     -5.42879663	    -12.14515023	      0.69016159	     -1.08001701	     -0.93993683	     -6.00810204	      6.54738719	     28.11699035	     78.68975039	     -2.52710335	     -6.15362182	      8.73597531	     26.35263379	     72.96582158
      0.00416670	     -7.54255082	     -0.78821475	     -0.92525664	     -0.92612800	      1.26460406	     -0.02307459	     15.09914495	      0.64998189	      0.00496080	     15.10204973	      0.26358049	      6.85474250	    -18.95739560	     -6.44070384	     14.12157812	     -2.56968941	      3.43100132	     15.84105481	      0.27647856	     12.76363625	     -6.27799863	     -6.44070384	     -8.18401547	      0.90415467	     -1.23068625	     -2.19093882	     -4.72610932	      1.16735327	     27.54231272	     81.12166685	     -3.21631215	     -4.69711867	      3.53874713	     25.52477979	     78.78459441
      0.00833330	     -8.67685483	     -0.41626303	     -0.99817627	     -0.92618853	      1.26283273	     -0.02198229	     16.24278547	      0.38414878	     -0.22456829	     14.72107607	      0.25693125	      6.88292352	    -19.45106265	     -6.72155832	     15.55192295	     -2.27709022	      3.97187020	     16.28532056	      0.28423246	     12.42668180	     -7.78152242	     -6.72155832	     -6.51263405	      0.29476005	     -0.81555171	     -3.29338831	     -3.95378998	     -2.30979772	     28.19234684	     80.24234464	     -3.56582240	     -4.75154781	      3.02322166	     25.43646524	     79.81312851
      0.01250000	     -8.60940057	     -0.35028435	     -0.91623505	     -0.92655296	      1.26369147	     -0.02192169	     16.09561829	      0.37758147	     -0.18914988	     14.50513500	      0.25316236	      6.99433381	    -19.22827863	     -6.78633677	     15.42069132	     -2.08767433	      4.87966840	     16.17217611	      0.28225772	     12.18033273	     -9.05367583	     -6.78633677	     -6.40648737	      0.10656692	     -0.81961708	     -3.59282607	     -3.89274442	     -2.60300066	     28.48752343	     79.78068250	     -3.74817984	     -5.03398676	      3.14177707	     25.70482688	     79.58970194
      0.01666670	     -8.66631646	     -0.33582214	     -0.84086316	     -0.92555474	      1.26570324	     -0.02211533	     15.92946652	      0.42402293	     -0.13787615	     14.09215081	      0.24595443	      6.59459181	    -19.56020398	     -6.93911920	     15.29925362	     -1.96271094	      5.53085777	     15.84978216	      0.27663088	     11.79380674	    -10.05343393	     -6.93911920	     -6.24736121	      0.17645072	     -0.66753270	     -3.95099317	     -3.89006274	     -2.63202444	     28.96331559	     78.06135733	     -3.78521086	     -5.01803574	      3.82305671	     25.81752322	     78.19250712
      0.02083330	     -8.31002664	     -0.30176001	     -0.74563569	     -0.92486200	      1.26536427	     -0.02121506	     15.32800284	      0.49128482	      0.00035508	     13.76635562	      0.24026823	      6.17770949	    -19.94537494	     -6.98763517	     14.84398288	     -1.88482647	      5.90492371	     15.68415166	      0.27374009	     11.47681122	    -10.95799197	     -6.98763517	     -6.64936199	      0.17163738	     -0.46861642	     -4.11526303	     -3.93685143	     -2.25096590	     29.30960194	     78.05068506	     -3.56911255	     -5.12736024	      4.62739882	     26.01304517	     78.37329812
      0.02500000	     -8.21028311	     -0.28074143	     -0.62004092	     -0.92460460	      1.26607980	     -0.02152246	     15.07249523	      0.48981130	     -0.02504129	     13.55807723	      0.23663309	      5.98038382	    -20.10113990	     -7.10274247	     14.73717848	     -1.79716106	      6.12250562	     15.61082295	      0.27246026	     11.42175281	    -11.28394583	     -7.10274247	     -6.78034278	      0.21639947	     -0.20204165	     -4.46363019	     -3.96682324	     -2.87714511	     29.88217824	     83.50051201	     -3.30049678	     -5.26196067	      5.20729528	     26.22415848	     84.30999951
      0.02916670	     -8.00274882	     -0.28875379	     -0.50579660	     -0.92418195	      1.26812080	     -0.02212622	     14.66670459	      0.47284443	     -0.06815639	     13.31383615	      0.23237028	      5.46108134	    -20.57633673	     -7.17256838	     14.43759414	     -1.70239454	      6.43577990	     15.44973161	      0.26964869	     11.08271869	    -11.83280236	     -7.17256838	     -7.01474523	      0.28555274	     -0.21168643	     -4.39688761	     -3.95110929	     -2.81066388	     29.84110075	     82.23492755	     -3.14157249	     -5.03721413	      4.64789099	     26.28812463	     82.83727241
      0.03333330	     -7.69691087	     -0.30778422	     -0.46076767	     -0.92440784	      1.26907843	     -0.02251492	     14.19128730	      0.49170329	      0.04105270	     12.97610377	      0.22647573	      4.85253193	    -21.11548920	     -7.20812700	     14.03199306	     -1.65207002	      6.67169852	     15.27959748	      0.26667928	     10.67420270	    -12.40945828	     -7.20812700	     -7.48488644	      0.35162706	     -0.19716036	     -4.33725818	     -4.02187896	     -2.53345505	     29.99960699	     82.06605981	     -3.03684555	     -4.93993971	      4.28394487	     26.58583736	     82.54390906
      0.03750000	     -7.44245779	     -0.39023611	     -0.42660232	     -0.92314849	      1.26830236	     -0.02133935	     13.79597506	      0.58971408	      0.08526165	     12.73793475	      0.22231890	      4.23840022	    -21.63026254	     -7.31280724	     13.72218158	     -1.72910769	      6.81346752	     15.28687976	      0.26680638	     10.26168592	    -12.93104135	     -7.31280724	     -7.80858654	      0.43630215	     -0.29448112	     -4.27918374	     -3.92647058	     -3.29420725	     30.13105601	     86.91237182	     -3.25361573	     -4.65027061	      1.75934154	     27.05875135	     87.89283736
      0.04166670	     -7.34980051	     -0.45088338	     -0.42478790	     -0.92399217	      1.26876162	     -0.02179310	     13.63380011	      0.66971163	      0.16776340	     12.59448965	      0.21981531	      3.71307751	    -22.11365960	     -7.32482201	     13.59459347	     -1.75281780	      7.02662862	     15.20086562	      0.26530515	      9.99846687	    -13.26041283	     -7.32482201	     -7.94301162	      0.52067616	     -0.19478676	     -4.23879483	     -3.98981588	     -3.15545106	     30.17225760	     85.99955298	     -3.16178568	     -4.60807908	      1.71783833	     27.05215675	     87.05179726
